<svg fill="none" height="20" viewBox="0 0 150 20" width="150" xmlns="http://www.w3.org/2000/svg" xmlns:xlink="http://www.w3.org/1999/xlink">
    <clipPath id="a">
        <path d="m0 0h149.351v20h-149.351z" />
    </clipPath>
    <g clip-path="url(#a)">
        <path d="m120.572 15.4878h-3.644l-3.016-4.4175-2.992 4.4175h-3.646l4.838-7.08819-4.838-7.09597h3.623zm0-14.18416-3.017 4.41748h-3.643l3.016-4.41748zm1.518 14.18416v-14.18416h5.524c1.044-.0116 2.081.17416 3.056.54752.883.33356 1.692.83954 2.378 1.48856.657.63236 1.18 1.39034 1.538 2.22897.376.88061.566 1.82966.558 2.78737v.04355c.008.96172-.182 1.91479-.558 2.79979-.358.8452-.88 1.6104-1.538 2.2508-.684.654-1.493 1.1638-2.378 1.4994-.975.3721-2.012.5573-3.056.546zm3.123-2.8154h2.408c1.267 0 2.296-.3919 3.086-1.1759.791-.7839 1.186-1.80379 1.186-3.05956v-.03733c0-1.25681-.395-2.28392-1.184-3.08135s-1.818-1.19562-3.087-1.19459h-2.409zm20.506 2.8154-2.358-3.5246-2.531-3.77047h2.559c.755 0 1.341-.18561 1.76-.55685.204-.1803.365-.40371.473-.65414.107-.25042.158-.52161.148-.79398v-.04044c0-.66263-.219-1.16608-.657-1.51035s-1.035-.51641-1.791-.51641h-3.098v11.36724h-3.118v-14.18416h6.477c.812-.01297 1.62.11383 2.389.37486.652.22016 1.247.5837 1.74 1.06393.398.4029.705.88664.901 1.41857.213.58382.318 1.20151.311 1.82299v.04044c0 1.14067-.284 2.07394-.85 2.79982-.564.72617-1.32 1.27955-2.183 1.59745l3.46 5.0661z" fill="#6b0aea" />
        <path d="m24.2146 15.5018v-8.44926c-.0004-.0513-.021-.10035-.0574-.13648s-.0855-.0564-.1368-.0564h-4.1711c-.0512 0-.1004.02027-.1368.0564s-.057.08518-.0574.13648v8.44926h-2.6549v-8.99522c.0004-.58416.2322-1.1443.6446-1.55752.4124-.41321.9717-.64573 1.5551-.64656h5.4684c.2894-.00041.5762.05628.8438.16682.2676.11055.5108.27278.7158.47745s.3677.44776.4789.71539c.1111.26763.1686.55457.169.84442v8.99522zm25.0798 0c.5833-.0005 1.1425-.2326 1.555-.6456.4124-.413.6443-.9729.6447-1.557v-8.9967h-2.6549v8.4523c0 .0513-.0202.1005-.0563.137-.0361.0364-.0851.057-.1363.0575h-4.1727c-.0259.0006-.0517-.004-.0758-.0135s-.046-.0237-.0646-.0418c-.0185-.0181-.0332-.0398-.0433-.0637-.01-.0239-.0152-.0495-.0152-.0755v-8.4523h-2.6503v8.9967c.0009.5842.2331 1.1442.6458 1.5571s.9721.645 1.5555.6455zm24.0793 0v-8.45081c0-.05075.0201-.09941.0559-.13529.0359-.03588.0845-.05604.1352-.05604h3.6849v-2.55716h-4.325c-.5837.00041-1.1434.23276-1.5561.64602-.4127.41325-.6448.97363-.6452 1.55806v8.99522zm-62.3064-5.97765c-.1977-.46728-.4866-.89033-.8497-1.24436-.36276-.34651-.7834-.62659-1.24283-.8275-.48471-.21007-.99507-.35495-1.51778-.43086-.45672-.06533-.96783-.12599-1.52243-.17732s-1.05017-.11044-1.48825-.17577c-.35348-.04343-.6855-.19311-.9523-.4293-.23147-.21776-.34954-.53041-.34954-.95038-.00641-.21353.03388-.42589.11807-.62218.07971-.17021.18444-.3275.3107-.46664.26769-.28095.60993-.47953.98647-.5724.75627-.21631 1.55961-.20332 2.30851.03733.33736.09129.64657.2656.89948.50707.16356.17947.29778.38367.39769.60507.10175.21642.16133.45029.17555.68907v.11666h2.82736v-.12599c-.0092-.58422-.151-1.15868-.4148-1.67989-.2631-.51144-.6127-.97347-1.03305-1.36569-.51042-.4718-1.11821-.82546-1.78032-1.03593-1.47537-.48311-3.06868-.465616-4.53312.04978-.67567.23114-1.29205.60877-1.80517 1.10592-.36967.3693-.675246.79774-.904136 1.2677-.231926.48536-.349893 1.01741-.344878 1.55545-.009791.54512.089513 1.08669.292059 1.59278.183873.44615.452405.85236.790735 1.19614.33322.33246.72306.60268 1.15114.79795.44444.2043.91494.34615 1.39816.42153.45828.07777.9756.13843 1.53796.17732.51402.03401 1.02553.09894 1.53176.19443.39514.06976.76795.23294 1.08745.47596.3107.2318.44896.574.44896 1.0468.01368.2525-.03431.5045-.13981.7342-.10398.1845-.22911.3563-.37284.5117-.26817.2706-.60757.4594-.97871.5445-.83813.2104-1.71441.2168-2.55551.0186-.38829-.0871-.74386-.283-1.02531-.5646-.20533-.2088-.37252-.452-.49402-.7186-.12957-.2803-.19587-.5856-.19419-.8944v-.1245h-2.83047877v.1245c-.0060433.6523.13913077 1.297.42410677 1.8836.261145.5419.622192 1.0296 1.064152 1.4373.57083.5239 1.25279.9116 1.99469 1.1339.72597.2169 1.47946.3274 2.23705.3282.8359.0048 1.66803-.1126 2.47007-.3484.75357-.2158 1.44101-.6174 1.99935-1.1682.3566-.3608.6464-.7821.856-1.2443.2346-.5485.3485-1.141.334-1.7375.008-.5603-.0977-1.1165-.3107-1.63475zm74.5961 3.44995c-.0506 0-.0993-.0201-.1351-.056s-.0559-.0845-.0559-.1353v-5.95113h3.9319v-2.52917h-3.9319v-3.17468l-2.6565 1.09815v11.07323c.0008.5842.233 1.1442.6457 1.5571s.9721.645 1.5556.6455h3.8433l1.1465-2.5277zm-29.7822-12.97397793-2.6549 1.09970793v14.40197h2.6549zm25.3749 2.87136793-2.6487 1.0997v11.53061h2.655zm-68.4861 12.63031h2.6549v-11.1993l-2.6549 1.09971zm24.5593-11.1993v.98616c-.9721-.78063-2.1809-1.20636-3.427-1.20703-3.0993 0-5.6097 2.59449-5.6097 5.79561 0 3.14666 2.425 5.70856 5.4512 5.79566h1.5535l1.1496-2.5385h-2.3722c-.6434.0003-1.2725-.1904-1.8078-.5479-.5352-.3576-.9526-.8659-1.1994-1.4609s-.3119-1.24983-.1871-1.88184c.1247-.63201.4338-1.21281.8881-1.669.4544-.4562 1.0335-.76733 1.6644-.89407.6309-.12673 1.2851-.0634 1.88.182s1.1038.66186 1.4625 1.19676c.3586.5349.5508 1.16422.5523 1.80846v6.57799c-.0008.2702-.1085.5291-.2994.7201-.191.1909-.4498.2983-.7197.2987h-5.0644l-1.148 2.5308h6.7795c.824 0 1.6143-.3278 2.197-.9112.5826-.5834.91-1.3747.91-2.1997v-12.5821zm29.0676 0v.98616c-.9721-.78063-2.1809-1.20636-3.427-1.20703-3.0993 0-5.6097 2.59449-5.6097 5.79561 0 3.14666 2.425 5.70856 5.4512 5.79566h1.5613l1.1496-2.5385h-2.38c-.6434.0003-1.2725-.1904-1.8078-.5479-.5352-.3576-.9526-.8659-1.1994-1.4609s-.3119-1.24983-.1871-1.88184c.1247-.63201.4338-1.21281.8881-1.669.4543-.4562 1.0335-.76733 1.6644-.89407.6308-.12673 1.2851-.0634 1.88.182s1.1038.66186 1.4625 1.19676c.3586.5349.5508 1.16422.5523 1.80846v5.63389h2.655v-11.1993zm26.1144 15.6976h2.846l7.1227-15.6976h-2.8475zm3.3214-10.55216-2.3303-5.14544h-2.8507l3.7579 8.2828z" fill="#000" />
    </g>
</svg>
